<svg width="31" height="31" viewBox="0 0 31 31" fill="none" xmlns="http://www.w3.org/2000/svg">
<g filter="url(#filter0_in_2248_14625)">
<g filter="url(#filter1_n_2248_14625)">
<path d="M7.21343 14.0416L13.5785 5.55481C14.5043 4.32037 16.356 4.32037 17.2818 5.55481L23.6469 14.0416C24.2641 14.8645 24.2641 15.9961 23.6469 16.819L17.2818 25.3058C16.356 26.5402 14.5043 26.5402 13.5785 25.3058L7.21343 16.819C6.59621 15.9961 6.59621 14.8645 7.21343 14.0416Z" fill="#BEF264"/>
<path d="M18.9344 5.00906C19.3123 5.28892 19.7897 6.01699 20.0524 6.41746C20.0573 6.42477 20.0621 6.43208 20.067 6.43939C20.1293 6.53443 20.1922 6.62138 20.2661 6.72318C20.4421 6.9659 20.6798 7.29386 21.1185 8.02155C21.2686 8.21643 21.4176 8.4122 21.5652 8.60897C22.6842 10.101 23.7591 11.6261 24.8148 13.1656C25.5735 14.2168 25.7089 15.6489 25.1945 16.796C25.1752 16.8457 25.1547 16.8956 25.1327 16.9458C25.0305 17.1792 24.8971 17.4149 24.7351 17.6352C24.4159 18.0753 24.0742 18.5325 23.808 18.8254C23.3621 19.3159 23.0469 19.6398 22.7861 19.9043C21.4341 21.5275 20.0912 23.1576 18.7935 24.8216C18.5281 25.1619 18.2647 25.5036 18.0034 25.847C17.8125 26.0991 17.583 26.3268 17.3244 26.5155C16.6377 27.0204 15.7555 27.2303 14.9187 27.103C14.4269 27.0549 13.9617 26.8989 13.5704 26.6724C13.2204 26.4708 12.932 26.2167 12.7125 25.9553C12.6226 25.8536 12.5395 25.7569 12.4648 25.6652C11.9725 25.0615 11.4827 24.3252 11.1189 23.7785C11.0594 23.6891 11.0033 23.6047 10.9511 23.5269C10.624 23.1213 10.2958 22.7164 9.96726 22.3118C9.95534 22.2773 9.94363 22.2423 9.93181 22.2067C9.78435 21.7617 9.45501 21.3258 8.93679 20.6394C8.71112 20.3406 8.44964 19.9941 8.15166 19.5788C7.95965 19.3112 7.90542 19.1405 7.86106 19.001C7.84801 18.96 7.83573 18.9215 7.82115 18.8842C7.77113 18.7564 7.65574 18.6686 7.51944 18.5649C7.34261 18.4304 7.13039 18.2691 6.97992 17.9586C6.84644 17.6831 6.71916 17.4615 6.59847 17.2803C6.18605 16.6572 6.01566 16.2548 5.87568 15.911C5.82266 15.7704 5.78318 15.637 5.76434 15.4978C5.69199 15.0436 5.88331 14.3859 6.1689 13.9956C6.25507 13.8708 6.36129 13.6927 6.49543 13.5031C6.64038 13.2926 6.78862 13.0336 6.90383 12.8096C6.97597 12.6693 7.10164 12.5006 7.24978 12.302C7.40307 12.0966 7.58056 11.8589 7.7472 11.5873C8.16831 10.9007 8.39491 10.538 8.57717 10.2465C8.62914 10.1633 8.67767 10.086 8.7259 10.0086C8.87829 9.76392 9.07571 9.4665 9.27565 9.16542C9.51491 8.80511 9.75774 8.43943 9.93095 8.15252C10.4779 7.48241 11.0317 6.81729 11.5853 6.15225C11.8699 5.81079 12.228 5.54698 12.5854 5.42269C12.943 5.29855 13.2694 5.32304 13.4981 5.49454C13.7268 5.66606 13.8417 5.97261 13.8227 6.3506C13.8034 6.72854 13.6506 7.14634 13.4025 7.51512C12.9022 8.25775 12.4019 9.00055 11.8942 9.73772C11.2758 10.6357 10.6463 11.5255 9.99268 12.397C9.53541 13.0067 9.07268 13.6124 8.6056 14.2147C8.55752 14.2767 8.50932 14.3387 8.46114 14.4006C8.3819 14.5346 8.30241 14.6683 8.22385 14.7994C8.13134 15.005 8.12133 15.1999 8.12566 15.3399C8.13106 15.4914 8.11367 15.602 8.10982 15.7078C8.10763 15.7795 8.11372 15.8464 8.14559 15.9017C8.16268 15.9313 8.18931 15.97 8.22571 16.0132C8.23344 16.0224 8.24162 16.0318 8.25028 16.0414C8.58185 16.4479 9.10183 17.0927 9.50495 17.7387C9.69364 18.0411 9.89312 18.4072 10.0835 18.7567C10.3558 19.2565 10.6098 19.7225 10.7876 19.9205C11.1 20.2682 11.3924 20.7163 11.6507 21.1123C11.8972 21.49 12.1127 21.8203 12.2851 21.9708C12.4911 22.1506 12.6094 22.347 12.7854 22.6389C12.9074 22.8413 13.0574 23.0897 13.2834 23.4106C13.5443 23.781 13.7047 24.0613 13.8409 24.2995C13.9577 24.5035 14.0568 24.6768 14.1865 24.8498C14.2439 24.9261 14.3182 24.9949 14.4173 25.0496C14.6993 25.2067 14.9946 25.2702 15.2308 25.3249C15.339 25.3508 15.4688 25.3523 15.5997 25.334C15.7739 25.3104 15.9459 25.2524 16.1057 25.1974C16.2375 25.1523 16.3642 25.1268 16.4798 25.0889C16.5158 25.077 16.5499 25.0644 16.5824 25.0495C16.6318 24.9983 16.6779 24.9436 16.7209 24.8851C16.7661 24.824 16.8113 24.7629 16.8563 24.7016C16.8664 24.6733 16.8767 24.6431 16.8874 24.6117C16.9416 24.4542 17.0082 24.2606 17.128 24.0487C17.3175 23.7135 17.5433 23.464 17.7818 23.201C17.9674 22.9962 18.1606 22.7832 18.3499 22.5148C18.479 22.3318 18.6138 22.1143 18.7474 21.8987C18.9459 21.5784 19.1419 21.2623 19.3131 21.0688C19.3773 20.9963 19.4549 20.9509 19.5319 20.906C19.5323 20.9059 19.5327 20.9057 19.533 20.9055C19.5383 20.9025 19.5435 20.8994 19.5487 20.8963C19.9037 20.3788 20.2565 19.8595 20.6081 19.3394C20.6335 19.2905 20.6594 19.2413 20.6851 19.1925C20.8106 18.9543 20.9326 18.7229 20.9868 18.5529C21.0455 18.3688 21.2913 17.9794 21.5504 17.5691C21.72 17.3004 21.8955 17.0226 22.0277 16.7875C22.105 16.6502 22.2227 16.5531 22.3438 16.4533C22.4568 16.3601 22.5729 16.2645 22.6617 16.1315C22.6692 16.1202 22.6766 16.1087 22.6839 16.0968C22.6987 16.0664 22.7081 16.0306 22.7155 15.9932C22.7234 15.9536 22.729 15.9122 22.7378 15.8719C22.7459 15.8345 22.7978 15.7678 22.8463 15.6647C22.8762 15.6013 22.9042 15.5239 22.919 15.4382C22.8984 15.2111 22.8096 15.0014 22.6733 14.8364C22.6524 14.8285 22.6308 14.8231 22.6085 14.8203C22.5594 14.7938 22.5105 14.7736 22.4621 14.7607C22.4033 14.7451 22.3429 14.7395 22.2811 14.7337C22.1969 14.7258 22.1099 14.7176 22.02 14.6837C21.9497 14.6572 21.892 14.607 21.8753 14.5569C21.8675 14.5335 21.8685 14.5103 21.8694 14.4893C21.8704 14.4652 21.8713 14.4438 21.8587 14.4277C21.8497 14.4162 21.8319 14.4105 21.8102 14.4033C21.7755 14.3918 21.7306 14.3768 21.6943 14.3299C21.559 14.1555 21.4154 13.9497 21.2748 13.748C21.1184 13.5237 20.9655 13.3045 20.8314 13.1391C20.6811 12.9538 20.5093 12.658 20.3371 12.3619C20.217 12.1552 20.0966 11.9484 19.9833 11.7785C19.8723 11.6119 19.7297 11.4587 19.5915 11.3105C19.4256 11.1325 19.266 10.9614 19.1754 10.7822C19.1572 10.7459 19.1621 10.6801 19.1682 10.5977C19.1725 10.5393 19.1772 10.4722 19.175 10.4016C19.024 10.2002 18.8744 9.99779 18.726 9.79446C18.716 9.79091 18.7057 9.78719 18.6953 9.78354C18.6951 9.78351 18.6949 9.78347 18.6947 9.78344C18.4601 9.70098 18.1392 9.58809 17.9909 9.20249C17.9532 9.10447 17.9574 9.02182 17.9612 8.9474C17.9649 8.8743 17.9682 8.80894 17.9311 8.74476C17.8889 8.67188 17.8066 8.61015 17.7171 8.5428C17.5913 8.44824 17.4508 8.34262 17.3857 8.17974C17.3813 8.16862 17.3765 8.15662 17.3715 8.14421C17.3238 8.02651 17.2532 7.8523 17.222 7.64963C16.9207 7.2049 16.6229 6.75747 16.3274 6.30844C16.3218 6.3 16.3163 6.29156 16.3107 6.28312C16.103 5.90462 15.6532 5.6476 15.1504 5.69471C14.9099 5.71547 14.6475 5.71001 14.3418 5.69889C14.039 5.68402 13.7246 5.66164 13.4981 5.49454C13.2761 5.33071 13.156 4.99926 13.3335 4.55461C13.5036 4.11589 14.0109 3.64557 14.6622 3.47634C15.7094 3.18932 16.916 3.4094 17.8167 4.11986C17.8658 4.15381 17.9146 4.18976 17.9618 4.22664C18.1419 4.36755 18.3103 4.51142 18.4695 4.66406C18.573 4.74562 18.6788 4.8226 18.7847 4.89959C18.8346 4.93589 18.8847 4.97226 18.9344 5.00906Z" fill="#65A30D"/>
</g>
</g>
<defs>
<filter id="filter0_in_2248_14625" x="5.74902" y="3.35449" width="19.7529" height="23.7852" filterUnits="userSpaceOnUse" color-interpolation-filters="sRGB">
<feFlood flood-opacity="0" result="BackgroundImageFix"/>
<feBlend mode="normal" in="SourceGraphic" in2="BackgroundImageFix" result="shape"/>
<feColorMatrix in="SourceAlpha" type="matrix" values="0 0 0 0 0 0 0 0 0 0 0 0 0 0 0 0 0 0 127 0" result="hardAlpha"/>
<feOffset/>
<feGaussianBlur stdDeviation="3.08609"/>
<feComposite in2="hardAlpha" operator="arithmetic" k2="-1" k3="1"/>
<feColorMatrix type="matrix" values="0 0 0 0 0.0470588 0 0 0 0 0.0431373 0 0 0 0 0.0431373 0 0 0 0.05 0"/>
<feBlend mode="normal" in2="shape" result="effect1_innerShadow_2248_14625"/>
<feTurbulence type="fractalNoise" baseFrequency="1.2961381673812866 1.2961381673812866" stitchTiles="stitch" numOctaves="3" result="noise" seed="3550" />
<feColorMatrix in="noise" type="luminanceToAlpha" result="alphaNoise" />
<feComponentTransfer in="alphaNoise" result="coloredNoise1">
<feFuncA type="discrete" tableValues="0 0 0 0 0 0 0 0 0 0 0 0 1 1 1 1 1 1 1 1 1 1 1 1 1 1 1 1 1 1 1 1 1 1 1 1 1 1 0 0 0 0 0 0 0 0 0 0 0 0 0 0 0 0 0 0 0 0 0 0 0 0 0 0 0 0 0 0 0 0 0 0 0 0 0 0 0 0 0 0 0 0 0 0 0 0 0 0 0 0 0 0 0 0 0 0 0 0 0 0 "/>
</feComponentTransfer>
<feComposite operator="in" in2="effect1_innerShadow_2248_14625" in="coloredNoise1" result="noise1Clipped" />
<feComponentTransfer in="alphaNoise" result="coloredNoise2">
<feFuncA type="discrete" tableValues="0 0 0 0 0 0 0 0 0 0 0 0 0 0 0 0 0 0 0 0 0 0 0 0 0 0 0 0 0 0 0 0 0 0 0 0 0 0 0 0 0 0 0 0 0 0 0 0 0 0 0 0 0 0 0 0 0 0 0 0 0 0 1 1 1 1 1 1 1 1 1 1 1 1 1 1 1 1 1 1 1 1 1 1 1 1 1 1 0 0 0 0 0 0 0 0 0 0 0 0 "/>
</feComponentTransfer>
<feComposite operator="in" in2="effect1_innerShadow_2248_14625" in="coloredNoise2" result="noise2Clipped" />
<feFlood flood-color="rgba(0, 0, 0, 0.1)" result="color1Flood" />
<feComposite operator="in" in2="noise1Clipped" in="color1Flood" result="color1" />
<feFlood flood-color="rgba(255, 255, 255, 0.1)" result="color2Flood" />
<feComposite operator="in" in2="noise2Clipped" in="color2Flood" result="color2" />
<feMerge result="effect2_noise_2248_14625">
<feMergeNode in="effect1_innerShadow_2248_14625" />
<feMergeNode in="color1" />
<feMergeNode in="color2" />
</feMerge>
</filter>
<filter id="filter1_n_2248_14625" x="5.74902" y="3.35449" width="19.7529" height="23.7852" filterUnits="userSpaceOnUse" color-interpolation-filters="sRGB">
<feFlood flood-opacity="0" result="BackgroundImageFix"/>
<feBlend mode="normal" in="SourceGraphic" in2="BackgroundImageFix" result="shape"/>
<feTurbulence type="fractalNoise" baseFrequency="1.2961381673812866 1.2961381673812866" stitchTiles="stitch" numOctaves="3" result="noise" seed="471" />
<feColorMatrix in="noise" type="luminanceToAlpha" result="alphaNoise" />
<feComponentTransfer in="alphaNoise" result="coloredNoise1">
<feFuncA type="discrete" tableValues="0 0 0 0 0 0 0 0 0 0 0 0 1 1 1 1 1 1 1 1 1 1 1 1 1 1 1 1 1 1 1 1 1 1 1 1 1 1 0 0 0 0 0 0 0 0 0 0 0 0 0 0 0 0 0 0 0 0 0 0 0 0 0 0 0 0 0 0 0 0 0 0 0 0 0 0 0 0 0 0 0 0 0 0 0 0 0 0 0 0 0 0 0 0 0 0 0 0 0 0 "/>
</feComponentTransfer>
<feComposite operator="in" in2="shape" in="coloredNoise1" result="noise1Clipped" />
<feComponentTransfer in="alphaNoise" result="coloredNoise2">
<feFuncA type="discrete" tableValues="0 0 0 0 0 0 0 0 0 0 0 0 0 0 0 0 0 0 0 0 0 0 0 0 0 0 0 0 0 0 0 0 0 0 0 0 0 0 0 0 0 0 0 0 0 0 0 0 0 0 0 0 0 0 0 0 0 0 0 0 0 0 1 1 1 1 1 1 1 1 1 1 1 1 1 1 1 1 1 1 1 1 1 1 1 1 1 1 0 0 0 0 0 0 0 0 0 0 0 0 "/>
</feComponentTransfer>
<feComposite operator="in" in2="shape" in="coloredNoise2" result="noise2Clipped" />
<feFlood flood-color="rgba(12, 11, 11, 0.15)" result="color1Flood" />
<feComposite operator="in" in2="noise1Clipped" in="color1Flood" result="color1" />
<feFlood flood-color="rgba(255, 255, 255, 0.15)" result="color2Flood" />
<feComposite operator="in" in2="noise2Clipped" in="color2Flood" result="color2" />
<feMerge result="effect1_noise_2248_14625">
<feMergeNode in="shape" />
<feMergeNode in="color1" />
<feMergeNode in="color2" />
</feMerge>
</filter>
</defs>
</svg>
